<?xml version="1.0" standalone="no"?>
<!DOCTYPE svg PUBLIC "-//W3C//DTD SVG 20010904//EN"
 "http://www.w3.org/TR/2001/REC-SVG-20010904/DTD/svg10.dtd">
<svg version="1.0" xmlns="http://www.w3.org/2000/svg"
 width="95.000000pt" height="95.000000pt" viewBox="0 0 95.000000 95.000000"
 preserveAspectRatio="xMidYMid meet">
<metadata>
Created by potrace 1.10, written by Peter Selinger 2001-2011
</metadata>
<g transform="translate(0.000000,95.000000) scale(0.100000,-0.100000)"
fill="#ffffff" stroke="none">
<path d="M388 905 c-99 -36 -185 -130 -209 -228 -32 -129 41 -283 180 -380 14
-9 22 -20 18 -23 -4 -4 -39 -9 -79 -11 -63 -3 -79 -1 -113 19 -35 20 -95 93
-107 129 -3 9 -13 9 -41 0 l-37 -13 32 -60 c61 -114 157 -166 287 -155 l66 6
-33 -28 c-37 -32 -91 -50 -169 -58 l-53 -6 0 -38 c0 -36 2 -39 28 -39 46 0
158 28 199 49 42 21 113 93 113 114 0 6 10 -2 21 -20 40 -63 156 -119 282
-137 41 -6 47 -5 47 11 0 10 3 27 6 38 5 19 -2 22 -68 33 -71 12 -178 57 -185
77 -2 7 21 9 65 7 83 -5 136 9 199 51 50 33 113 116 113 147 0 22 -62 40 -68
21 -11 -34 -73 -98 -116 -120 -37 -19 -63 -25 -111 -24 -85 1 -94 9 -48 42 62
46 133 128 160 187 34 75 35 177 3 252 -30 69 -105 137 -173 157 -62 18 -159
18 -209 0z m200 -81 c56 -23 101 -72 117 -128 19 -62 19 -80 0 -144 -18 -60
-98 -152 -175 -202 l-49 -31 -38 19 c-56 29 -130 98 -160 149 -19 32 -27 63
-30 111 -4 62 -2 71 29 122 47 78 119 120 205 120 35 0 80 -7 101 -16z"/>
</g>
</svg>
